<mxfile host="app.diagrams.net" modified="2021-07-08T09:32:32.295Z" agent="5.0 (Windows NT 10.0; Win64; x64) AppleWebKit/537.36 (KHTML, like Gecko) Chrome/91.0.4472.124 Safari/537.36" etag="Df1koiyalgCKjF5eMSGn" version="14.8.4" type="github">
  <diagram id="C5RBs43oDa-KdzZeNtuy" name="Page-1">
    <mxGraphModel dx="2012" dy="588" grid="1" gridSize="10" guides="1" tooltips="1" connect="1" arrows="1" fold="1" page="1" pageScale="1" pageWidth="827" pageHeight="1169" math="0" shadow="0">
      <root>
        <mxCell id="WIyWlLk6GJQsqaUBKTNV-0" />
        <mxCell id="WIyWlLk6GJQsqaUBKTNV-1" parent="WIyWlLk6GJQsqaUBKTNV-0" />
        <mxCell id="1FdhS4_hSl1T9DwcQxYW-158" value="" style="rounded=0;whiteSpace=wrap;html=1;strokeColor=#82b366;strokeWidth=1;fillColor=#d5e8d4;" vertex="1" parent="WIyWlLk6GJQsqaUBKTNV-1">
          <mxGeometry x="960" y="430" width="540" height="930" as="geometry" />
        </mxCell>
        <mxCell id="1FdhS4_hSl1T9DwcQxYW-92" value="" style="rounded=0;whiteSpace=wrap;html=1;strokeColor=#82b366;strokeWidth=3;fillColor=#d5e8d4;" vertex="1" parent="WIyWlLk6GJQsqaUBKTNV-1">
          <mxGeometry x="250" y="780" width="460" height="880" as="geometry" />
        </mxCell>
        <mxCell id="WIyWlLk6GJQsqaUBKTNV-2" value="" style="rounded=0;html=1;jettySize=auto;orthogonalLoop=1;fontSize=11;endArrow=block;endFill=0;endSize=8;strokeWidth=1;shadow=0;labelBackgroundColor=none;edgeStyle=orthogonalEdgeStyle;" parent="WIyWlLk6GJQsqaUBKTNV-1" source="WIyWlLk6GJQsqaUBKTNV-3" target="WIyWlLk6GJQsqaUBKTNV-6" edge="1">
          <mxGeometry relative="1" as="geometry" />
        </mxCell>
        <mxCell id="WIyWlLk6GJQsqaUBKTNV-3" value="预约上线消息" style="rounded=1;whiteSpace=wrap;html=1;fontSize=12;glass=0;strokeWidth=1;shadow=0;" parent="WIyWlLk6GJQsqaUBKTNV-1" vertex="1">
          <mxGeometry x="390" y="90" width="120" height="40" as="geometry" />
        </mxCell>
        <mxCell id="WIyWlLk6GJQsqaUBKTNV-4" value="Yes" style="rounded=0;html=1;jettySize=auto;orthogonalLoop=1;fontSize=11;endArrow=block;endFill=0;endSize=8;strokeWidth=1;shadow=0;labelBackgroundColor=none;edgeStyle=orthogonalEdgeStyle;" parent="WIyWlLk6GJQsqaUBKTNV-1" source="WIyWlLk6GJQsqaUBKTNV-6" target="WIyWlLk6GJQsqaUBKTNV-10" edge="1">
          <mxGeometry y="20" relative="1" as="geometry">
            <mxPoint as="offset" />
          </mxGeometry>
        </mxCell>
        <mxCell id="WIyWlLk6GJQsqaUBKTNV-5" value="No" style="edgeStyle=orthogonalEdgeStyle;rounded=0;html=1;jettySize=auto;orthogonalLoop=1;fontSize=11;endArrow=block;endFill=0;endSize=8;strokeWidth=1;shadow=0;labelBackgroundColor=none;" parent="WIyWlLk6GJQsqaUBKTNV-1" source="WIyWlLk6GJQsqaUBKTNV-6" edge="1">
          <mxGeometry x="-0.8776" y="10" relative="1" as="geometry">
            <mxPoint as="offset" />
            <mxPoint x="500" y="1810" as="targetPoint" />
            <Array as="points">
              <mxPoint x="810" y="220" />
              <mxPoint x="810" y="1810" />
            </Array>
          </mxGeometry>
        </mxCell>
        <mxCell id="WIyWlLk6GJQsqaUBKTNV-6" value="是否登录" style="rhombus;whiteSpace=wrap;html=1;shadow=0;fontFamily=Helvetica;fontSize=12;align=center;strokeWidth=1;spacing=6;spacingTop=-4;" parent="WIyWlLk6GJQsqaUBKTNV-1" vertex="1">
          <mxGeometry x="400" y="180" width="100" height="80" as="geometry" />
        </mxCell>
        <mxCell id="WIyWlLk6GJQsqaUBKTNV-8" value="Yes" style="rounded=0;html=1;jettySize=auto;orthogonalLoop=1;fontSize=11;endArrow=block;endFill=0;endSize=8;strokeWidth=1;shadow=0;labelBackgroundColor=none;edgeStyle=orthogonalEdgeStyle;" parent="WIyWlLk6GJQsqaUBKTNV-1" source="WIyWlLk6GJQsqaUBKTNV-10" edge="1">
          <mxGeometry x="-0.3333" y="20" relative="1" as="geometry">
            <mxPoint as="offset" />
            <mxPoint x="450" y="440" as="targetPoint" />
          </mxGeometry>
        </mxCell>
        <mxCell id="WIyWlLk6GJQsqaUBKTNV-10" value="预约上线&lt;br&gt;自动安装&lt;br&gt;打开" style="rhombus;whiteSpace=wrap;html=1;shadow=0;fontFamily=Helvetica;fontSize=12;align=center;strokeWidth=1;spacing=6;spacingTop=-4;" parent="WIyWlLk6GJQsqaUBKTNV-1" vertex="1">
          <mxGeometry x="400" y="300" width="100" height="80" as="geometry" />
        </mxCell>
        <mxCell id="ebCV4vV2BCAYUUxFwjKP-8" value="" style="edgeStyle=orthogonalEdgeStyle;rounded=0;html=1;jettySize=auto;orthogonalLoop=1;fontSize=11;endArrow=block;endFill=0;endSize=8;strokeWidth=1;shadow=0;labelBackgroundColor=none;exitX=0;exitY=0.5;exitDx=0;exitDy=0;" parent="WIyWlLk6GJQsqaUBKTNV-1" source="ebCV4vV2BCAYUUxFwjKP-18" edge="1">
          <mxGeometry x="-0.2381" y="-20" relative="1" as="geometry">
            <mxPoint as="offset" />
            <mxPoint x="186" y="340" as="sourcePoint" />
            <mxPoint x="400" y="1810" as="targetPoint" />
            <Array as="points">
              <mxPoint x="106" y="340" />
              <mxPoint x="106" y="1810" />
            </Array>
          </mxGeometry>
        </mxCell>
        <mxCell id="ebCV4vV2BCAYUUxFwjKP-9" value="No" style="rounded=0;html=1;jettySize=auto;orthogonalLoop=1;fontSize=11;endArrow=block;endFill=0;endSize=8;strokeWidth=1;shadow=0;labelBackgroundColor=none;edgeStyle=orthogonalEdgeStyle;exitX=0;exitY=0.5;exitDx=0;exitDy=0;entryX=1;entryY=0.5;entryDx=0;entryDy=0;" parent="WIyWlLk6GJQsqaUBKTNV-1" source="WIyWlLk6GJQsqaUBKTNV-10" target="ebCV4vV2BCAYUUxFwjKP-18" edge="1">
          <mxGeometry x="-0.0244" y="-10" relative="1" as="geometry">
            <mxPoint as="offset" />
            <mxPoint x="359" y="400" as="sourcePoint" />
            <mxPoint x="346" y="340" as="targetPoint" />
          </mxGeometry>
        </mxCell>
        <mxCell id="ebCV4vV2BCAYUUxFwjKP-11" value="No" style="rounded=0;html=1;jettySize=auto;orthogonalLoop=1;fontSize=11;endArrow=block;endFill=0;endSize=8;strokeWidth=1;shadow=0;labelBackgroundColor=none;edgeStyle=orthogonalEdgeStyle;" parent="WIyWlLk6GJQsqaUBKTNV-1" edge="1">
          <mxGeometry x="-0.3333" y="20" relative="1" as="geometry">
            <mxPoint as="offset" />
            <mxPoint x="449.5" y="520" as="sourcePoint" />
            <mxPoint x="449.5" y="580" as="targetPoint" />
          </mxGeometry>
        </mxCell>
        <mxCell id="ebCV4vV2BCAYUUxFwjKP-16" value="" style="rounded=0;html=1;jettySize=auto;orthogonalLoop=1;fontSize=11;endArrow=block;endFill=0;endSize=8;strokeWidth=1;shadow=0;labelBackgroundColor=none;edgeStyle=orthogonalEdgeStyle;entryX=0.5;entryY=0;entryDx=0;entryDy=0;" parent="WIyWlLk6GJQsqaUBKTNV-1" source="ebCV4vV2BCAYUUxFwjKP-15" edge="1">
          <mxGeometry relative="1" as="geometry">
            <mxPoint x="449.5" y="760" as="sourcePoint" />
            <mxPoint x="450" y="1790" as="targetPoint" />
          </mxGeometry>
        </mxCell>
        <mxCell id="ebCV4vV2BCAYUUxFwjKP-18" value="是否有&lt;br&gt;通知权限" style="rhombus;whiteSpace=wrap;html=1;shadow=0;fontFamily=Helvetica;fontSize=12;align=center;strokeWidth=1;spacing=6;spacingTop=-4;" parent="WIyWlLk6GJQsqaUBKTNV-1" vertex="1">
          <mxGeometry x="190" y="300" width="100" height="80" as="geometry" />
        </mxCell>
        <mxCell id="ebCV4vV2BCAYUUxFwjKP-19" value="No" style="text;html=1;align=center;verticalAlign=middle;resizable=0;points=[];autosize=1;" parent="WIyWlLk6GJQsqaUBKTNV-1" vertex="1">
          <mxGeometry x="136" y="320" width="30" height="20" as="geometry" />
        </mxCell>
        <mxCell id="ebCV4vV2BCAYUUxFwjKP-20" value="布局数据非法" style="rhombus;whiteSpace=wrap;html=1;shadow=0;fontFamily=Helvetica;fontSize=12;align=center;strokeWidth=1;spacing=6;spacingTop=-4;" parent="WIyWlLk6GJQsqaUBKTNV-1" vertex="1">
          <mxGeometry x="190" y="440" width="100" height="80" as="geometry" />
        </mxCell>
        <mxCell id="ebCV4vV2BCAYUUxFwjKP-21" value="Yes" style="rounded=0;html=1;jettySize=auto;orthogonalLoop=1;fontSize=11;endArrow=block;endFill=0;endSize=8;strokeWidth=1;shadow=0;labelBackgroundColor=none;edgeStyle=orthogonalEdgeStyle;entryX=0.5;entryY=0;entryDx=0;entryDy=0;" parent="WIyWlLk6GJQsqaUBKTNV-1" target="ebCV4vV2BCAYUUxFwjKP-20" edge="1">
          <mxGeometry y="20" relative="1" as="geometry">
            <mxPoint as="offset" />
            <mxPoint x="240" y="380" as="sourcePoint" />
            <mxPoint x="240" y="420" as="targetPoint" />
          </mxGeometry>
        </mxCell>
        <mxCell id="ebCV4vV2BCAYUUxFwjKP-22" value="Yes" style="rounded=0;html=1;jettySize=auto;orthogonalLoop=1;fontSize=11;endArrow=block;endFill=0;endSize=8;strokeWidth=1;shadow=0;labelBackgroundColor=none;edgeStyle=orthogonalEdgeStyle;exitX=0;exitY=0.5;exitDx=0;exitDy=0;" parent="WIyWlLk6GJQsqaUBKTNV-1" edge="1">
          <mxGeometry x="-0.0244" y="-10" relative="1" as="geometry">
            <mxPoint as="offset" />
            <mxPoint x="190" y="479.5" as="sourcePoint" />
            <mxPoint x="106" y="480" as="targetPoint" />
            <Array as="points">
              <mxPoint x="126" y="480" />
              <mxPoint x="126" y="480" />
            </Array>
          </mxGeometry>
        </mxCell>
        <mxCell id="ebCV4vV2BCAYUUxFwjKP-23" value="显示通知" style="rounded=0;whiteSpace=wrap;html=1;" parent="WIyWlLk6GJQsqaUBKTNV-1" vertex="1">
          <mxGeometry x="180" y="605" width="120" height="30" as="geometry" />
        </mxCell>
        <mxCell id="ebCV4vV2BCAYUUxFwjKP-25" value="No" style="rounded=0;html=1;jettySize=auto;orthogonalLoop=1;fontSize=11;endArrow=block;endFill=0;endSize=8;strokeWidth=1;shadow=0;labelBackgroundColor=none;edgeStyle=orthogonalEdgeStyle;entryX=0.5;entryY=0;entryDx=0;entryDy=0;exitX=0.5;exitY=1;exitDx=0;exitDy=0;" parent="WIyWlLk6GJQsqaUBKTNV-1" source="ebCV4vV2BCAYUUxFwjKP-20" target="ebCV4vV2BCAYUUxFwjKP-23" edge="1">
          <mxGeometry y="20" relative="1" as="geometry">
            <mxPoint as="offset" />
            <mxPoint x="336" y="500" as="sourcePoint" />
            <mxPoint x="336" y="560" as="targetPoint" />
          </mxGeometry>
        </mxCell>
        <mxCell id="ebCV4vV2BCAYUUxFwjKP-26" value="点击进入详&lt;br&gt;情页开始下载" style="rhombus;whiteSpace=wrap;html=1;shadow=0;fontFamily=Helvetica;fontSize=12;align=center;strokeWidth=1;spacing=6;spacingTop=-4;" parent="WIyWlLk6GJQsqaUBKTNV-1" vertex="1">
          <mxGeometry x="190" y="700" width="100" height="80" as="geometry" />
        </mxCell>
        <mxCell id="ebCV4vV2BCAYUUxFwjKP-27" value="" style="rounded=0;html=1;jettySize=auto;orthogonalLoop=1;fontSize=11;endArrow=block;endFill=0;endSize=8;strokeWidth=1;shadow=0;labelBackgroundColor=none;edgeStyle=orthogonalEdgeStyle;exitX=0.5;exitY=1;exitDx=0;exitDy=0;" parent="WIyWlLk6GJQsqaUBKTNV-1" edge="1">
          <mxGeometry y="20" relative="1" as="geometry">
            <mxPoint as="offset" />
            <mxPoint x="240" y="635" as="sourcePoint" />
            <mxPoint x="240" y="700" as="targetPoint" />
          </mxGeometry>
        </mxCell>
        <mxCell id="ebCV4vV2BCAYUUxFwjKP-29" value="Yes" style="rounded=0;html=1;jettySize=auto;orthogonalLoop=1;fontSize=11;endArrow=block;endFill=0;endSize=8;strokeWidth=1;shadow=0;labelBackgroundColor=none;edgeStyle=orthogonalEdgeStyle;entryX=0;entryY=0.5;entryDx=0;entryDy=0;exitX=0.5;exitY=1;exitDx=0;exitDy=0;" parent="WIyWlLk6GJQsqaUBKTNV-1" source="ebCV4vV2BCAYUUxFwjKP-26" target="ebCV4vV2BCAYUUxFwjKP-15" edge="1">
          <mxGeometry y="20" relative="1" as="geometry">
            <mxPoint as="offset" />
            <mxPoint x="296" y="740" as="sourcePoint" />
            <mxPoint x="336" y="745" as="targetPoint" />
          </mxGeometry>
        </mxCell>
        <mxCell id="ebCV4vV2BCAYUUxFwjKP-30" value="No" style="rounded=0;html=1;jettySize=auto;orthogonalLoop=1;fontSize=11;endArrow=block;endFill=0;endSize=8;strokeWidth=1;shadow=0;labelBackgroundColor=none;edgeStyle=orthogonalEdgeStyle;exitX=0;exitY=0.5;exitDx=0;exitDy=0;" parent="WIyWlLk6GJQsqaUBKTNV-1" edge="1">
          <mxGeometry x="-0.0244" y="-10" relative="1" as="geometry">
            <mxPoint as="offset" />
            <mxPoint x="190" y="739.5" as="sourcePoint" />
            <mxPoint x="106" y="740" as="targetPoint" />
            <Array as="points">
              <mxPoint x="126" y="740" />
              <mxPoint x="126" y="740" />
            </Array>
          </mxGeometry>
        </mxCell>
        <mxCell id="ebCV4vV2BCAYUUxFwjKP-15" value="开始下载" style="rounded=0;whiteSpace=wrap;html=1;" parent="WIyWlLk6GJQsqaUBKTNV-1" vertex="1">
          <mxGeometry x="390.5" y="1714" width="120" height="40" as="geometry" />
        </mxCell>
        <mxCell id="ebCV4vV2BCAYUUxFwjKP-33" value="1.数据不合法&lt;br&gt;2.下载列表中有该游戏&lt;br&gt;3.downloadUrl 为空&lt;br&gt;4.正在被其他下载器下载" style="rhombus;whiteSpace=wrap;html=1;shadow=0;fontFamily=Helvetica;fontSize=12;align=center;strokeWidth=1;spacing=6;spacingTop=-4;" parent="WIyWlLk6GJQsqaUBKTNV-1" vertex="1">
          <mxGeometry x="360" y="440" width="180" height="140" as="geometry" />
        </mxCell>
        <mxCell id="ebCV4vV2BCAYUUxFwjKP-35" value="Yes" style="rounded=0;html=1;jettySize=auto;orthogonalLoop=1;fontSize=11;endArrow=block;endFill=0;endSize=8;strokeWidth=1;shadow=0;labelBackgroundColor=none;edgeStyle=orthogonalEdgeStyle;exitX=1;exitY=0.5;exitDx=0;exitDy=0;" parent="WIyWlLk6GJQsqaUBKTNV-1" edge="1" source="ebCV4vV2BCAYUUxFwjKP-33">
          <mxGeometry x="-0.0244" y="-10" relative="1" as="geometry">
            <mxPoint as="offset" />
            <mxPoint x="500" y="479.40999999999997" as="sourcePoint" />
            <mxPoint x="810" y="510" as="targetPoint" />
            <Array as="points">
              <mxPoint x="680" y="510" />
            </Array>
          </mxGeometry>
        </mxCell>
        <mxCell id="1FdhS4_hSl1T9DwcQxYW-2" value="" style="shape=flexArrow;endArrow=classic;html=1;" edge="1" parent="WIyWlLk6GJQsqaUBKTNV-1">
          <mxGeometry width="50" height="50" relative="1" as="geometry">
            <mxPoint x="450" y="680" as="sourcePoint" />
            <mxPoint x="450" y="770" as="targetPoint" />
          </mxGeometry>
        </mxCell>
        <mxCell id="1FdhS4_hSl1T9DwcQxYW-4" value="执行" style="text;html=1;align=center;verticalAlign=middle;resizable=0;points=[];autosize=1;strokeColor=none;" vertex="1" parent="WIyWlLk6GJQsqaUBKTNV-1">
          <mxGeometry x="410" y="710" width="40" height="20" as="geometry" />
        </mxCell>
        <mxCell id="1FdhS4_hSl1T9DwcQxYW-5" value="" style="endArrow=classic;html=1;exitX=0.5;exitY=1;exitDx=0;exitDy=0;" edge="1" parent="WIyWlLk6GJQsqaUBKTNV-1" source="ebCV4vV2BCAYUUxFwjKP-33">
          <mxGeometry width="50" height="50" relative="1" as="geometry">
            <mxPoint x="480" y="880" as="sourcePoint" />
            <mxPoint x="450" y="610" as="targetPoint" />
          </mxGeometry>
        </mxCell>
        <mxCell id="1FdhS4_hSl1T9DwcQxYW-6" value="" style="shape=flexArrow;endArrow=classic;html=1;" edge="1" parent="WIyWlLk6GJQsqaUBKTNV-1">
          <mxGeometry width="50" height="50" relative="1" as="geometry">
            <mxPoint x="380" y="766" as="sourcePoint" />
            <mxPoint x="440" y="660" as="targetPoint" />
            <Array as="points">
              <mxPoint x="380" y="660" />
              <mxPoint x="515" y="660" />
            </Array>
          </mxGeometry>
        </mxCell>
        <mxCell id="1FdhS4_hSl1T9DwcQxYW-7" value="30mins later" style="text;html=1;strokeColor=none;fillColor=none;align=center;verticalAlign=middle;whiteSpace=wrap;rounded=0;" vertex="1" parent="WIyWlLk6GJQsqaUBKTNV-1">
          <mxGeometry x="330" y="690" width="40" height="20" as="geometry" />
        </mxCell>
        <mxCell id="1FdhS4_hSl1T9DwcQxYW-8" value="" style="shape=flexArrow;endArrow=classic;html=1;entryX=0.5;entryY=0;entryDx=0;entryDy=0;" edge="1" parent="WIyWlLk6GJQsqaUBKTNV-1">
          <mxGeometry width="50" height="50" relative="1" as="geometry">
            <mxPoint x="450" y="780" as="sourcePoint" />
            <mxPoint x="450" y="818" as="targetPoint" />
          </mxGeometry>
        </mxCell>
        <mxCell id="1FdhS4_hSl1T9DwcQxYW-32" value="插入查询队列" style="rounded=0;whiteSpace=wrap;html=1;" vertex="1" parent="WIyWlLk6GJQsqaUBKTNV-1">
          <mxGeometry x="390" y="610" width="120" height="30" as="geometry" />
        </mxCell>
        <mxCell id="1FdhS4_hSl1T9DwcQxYW-33" value="" style="endArrow=classic;html=1;exitX=0.5;exitY=1;exitDx=0;exitDy=0;" edge="1" parent="WIyWlLk6GJQsqaUBKTNV-1" source="1FdhS4_hSl1T9DwcQxYW-32">
          <mxGeometry width="50" height="50" relative="1" as="geometry">
            <mxPoint x="480" y="910" as="sourcePoint" />
            <mxPoint x="450" y="670" as="targetPoint" />
          </mxGeometry>
        </mxCell>
        <mxCell id="1FdhS4_hSl1T9DwcQxYW-48" value="" style="endArrow=classic;html=1;exitX=0;exitY=0.5;exitDx=0;exitDy=0;" edge="1" parent="WIyWlLk6GJQsqaUBKTNV-1" source="1FdhS4_hSl1T9DwcQxYW-34">
          <mxGeometry width="50" height="50" relative="1" as="geometry">
            <mxPoint x="480" y="810" as="sourcePoint" />
            <mxPoint x="450" y="910" as="targetPoint" />
            <Array as="points">
              <mxPoint x="260" y="1630" />
              <mxPoint x="260" y="1060" />
              <mxPoint x="260" y="910" />
            </Array>
          </mxGeometry>
        </mxCell>
        <mxCell id="1FdhS4_hSl1T9DwcQxYW-72" value="" style="endArrow=classic;html=1;exitX=0.5;exitY=1;exitDx=0;exitDy=0;entryX=0.5;entryY=0;entryDx=0;entryDy=0;" edge="1" parent="WIyWlLk6GJQsqaUBKTNV-1" source="1FdhS4_hSl1T9DwcQxYW-65" target="1FdhS4_hSl1T9DwcQxYW-34">
          <mxGeometry width="50" height="50" relative="1" as="geometry">
            <mxPoint x="480" y="1210" as="sourcePoint" />
            <mxPoint x="530" y="1160" as="targetPoint" />
            <Array as="points">
              <mxPoint x="650" y="1610" />
            </Array>
          </mxGeometry>
        </mxCell>
        <mxCell id="1FdhS4_hSl1T9DwcQxYW-34" value="查询队列不为空" style="rhombus;whiteSpace=wrap;html=1;" vertex="1" parent="WIyWlLk6GJQsqaUBKTNV-1">
          <mxGeometry x="397.5" y="1610" width="130" height="40" as="geometry" />
        </mxCell>
        <mxCell id="1FdhS4_hSl1T9DwcQxYW-55" value="" style="group" vertex="1" connectable="0" parent="WIyWlLk6GJQsqaUBKTNV-1">
          <mxGeometry x="580" y="1719" width="130" height="30" as="geometry" />
        </mxCell>
        <mxCell id="1FdhS4_hSl1T9DwcQxYW-16" value="停止轮询任务" style="rounded=0;whiteSpace=wrap;html=1;" vertex="1" parent="1FdhS4_hSl1T9DwcQxYW-55">
          <mxGeometry width="130" height="30" as="geometry" />
        </mxCell>
        <mxCell id="1FdhS4_hSl1T9DwcQxYW-70" value="" style="edgeStyle=orthogonalEdgeStyle;rounded=0;orthogonalLoop=1;jettySize=auto;html=1;" edge="1" parent="WIyWlLk6GJQsqaUBKTNV-1" target="1FdhS4_hSl1T9DwcQxYW-34">
          <mxGeometry x="300" y="1210" as="geometry">
            <mxPoint x="463" y="1520" as="sourcePoint" />
          </mxGeometry>
        </mxCell>
        <mxCell id="ebCV4vV2BCAYUUxFwjKP-40" value="1.在游戏中" style="rhombus;whiteSpace=wrap;html=1;shadow=0;fontFamily=Helvetica;fontSize=12;align=center;strokeWidth=1;spacing=6;spacingTop=-4;" parent="WIyWlLk6GJQsqaUBKTNV-1" vertex="1">
          <mxGeometry x="403" y="820" width="100" height="80" as="geometry" />
        </mxCell>
        <mxCell id="ebCV4vV2BCAYUUxFwjKP-42" value="触发下载任务" style="rounded=0;whiteSpace=wrap;html=1;" parent="WIyWlLk6GJQsqaUBKTNV-1" vertex="1">
          <mxGeometry x="380" y="1500" width="160" height="30" as="geometry" />
        </mxCell>
        <mxCell id="1FdhS4_hSl1T9DwcQxYW-91" value="No" style="text;html=1;strokeColor=none;fillColor=none;align=center;verticalAlign=middle;whiteSpace=wrap;rounded=0;" vertex="1" parent="WIyWlLk6GJQsqaUBKTNV-1">
          <mxGeometry x="560" y="1630" width="40" height="20" as="geometry" />
        </mxCell>
        <mxCell id="1FdhS4_hSl1T9DwcQxYW-93" value="End" style="ellipse;whiteSpace=wrap;html=1;strokeWidth=1;" vertex="1" parent="WIyWlLk6GJQsqaUBKTNV-1">
          <mxGeometry x="404" y="1790" width="92" height="50" as="geometry" />
        </mxCell>
        <mxCell id="1FdhS4_hSl1T9DwcQxYW-94" value="" style="endArrow=classic;html=1;entryX=0.5;entryY=0;entryDx=0;entryDy=0;" edge="1" parent="WIyWlLk6GJQsqaUBKTNV-1">
          <mxGeometry width="50" height="50" relative="1" as="geometry">
            <mxPoint x="450" y="1660" as="sourcePoint" />
            <mxPoint x="449.5" y="1714" as="targetPoint" />
          </mxGeometry>
        </mxCell>
        <mxCell id="1FdhS4_hSl1T9DwcQxYW-95" value="" style="endArrow=classic;html=1;exitX=1;exitY=0.5;exitDx=0;exitDy=0;" edge="1" parent="WIyWlLk6GJQsqaUBKTNV-1" source="1FdhS4_hSl1T9DwcQxYW-54">
          <mxGeometry width="50" height="50" relative="1" as="geometry">
            <mxPoint x="480" y="1410" as="sourcePoint" />
            <mxPoint x="463" y="1590" as="targetPoint" />
            <Array as="points">
              <mxPoint x="640" y="1350" />
              <mxPoint x="640" y="1590" />
            </Array>
          </mxGeometry>
        </mxCell>
        <mxCell id="1FdhS4_hSl1T9DwcQxYW-106" value="" style="group" vertex="1" connectable="0" parent="WIyWlLk6GJQsqaUBKTNV-1">
          <mxGeometry x="289" y="900" width="421" height="569" as="geometry" />
        </mxCell>
        <mxCell id="1FdhS4_hSl1T9DwcQxYW-46" value="" style="endArrow=classic;html=1;" edge="1" parent="1FdhS4_hSl1T9DwcQxYW-106">
          <mxGeometry width="50" height="50" relative="1" as="geometry">
            <mxPoint x="164" as="sourcePoint" />
            <mxPoint x="164" y="30" as="targetPoint" />
          </mxGeometry>
        </mxCell>
        <mxCell id="1FdhS4_hSl1T9DwcQxYW-11" value="遍历队列检查用户是否预约" style="rounded=0;whiteSpace=wrap;html=1;" vertex="1" parent="1FdhS4_hSl1T9DwcQxYW-106">
          <mxGeometry x="104.5" y="30" width="120" height="30" as="geometry" />
        </mxCell>
        <mxCell id="1FdhS4_hSl1T9DwcQxYW-12" value="遍历队列检查用户是否下载" style="rounded=0;whiteSpace=wrap;html=1;" vertex="1" parent="1FdhS4_hSl1T9DwcQxYW-106">
          <mxGeometry x="104.5" y="240" width="120" height="30" as="geometry" />
        </mxCell>
        <mxCell id="1FdhS4_hSl1T9DwcQxYW-52" value="" style="edgeStyle=orthogonalEdgeStyle;rounded=0;orthogonalLoop=1;jettySize=auto;html=1;entryX=0.5;entryY=0;entryDx=0;entryDy=0;" edge="1" parent="1FdhS4_hSl1T9DwcQxYW-106" source="1FdhS4_hSl1T9DwcQxYW-50" target="1FdhS4_hSl1T9DwcQxYW-12">
          <mxGeometry x="22" y="10" as="geometry" />
        </mxCell>
        <mxCell id="1FdhS4_hSl1T9DwcQxYW-50" value="用户已预约" style="rhombus;whiteSpace=wrap;html=1;" vertex="1" parent="1FdhS4_hSl1T9DwcQxYW-106">
          <mxGeometry x="124" y="170" width="80" height="40" as="geometry" />
        </mxCell>
        <mxCell id="1FdhS4_hSl1T9DwcQxYW-14" value="" style="edgeStyle=orthogonalEdgeStyle;rounded=0;orthogonalLoop=1;jettySize=auto;html=1;exitX=0.5;exitY=1;exitDx=0;exitDy=0;" edge="1" parent="1FdhS4_hSl1T9DwcQxYW-106" source="1FdhS4_hSl1T9DwcQxYW-11">
          <mxGeometry x="22" y="10" as="geometry">
            <mxPoint x="165" y="100" as="targetPoint" />
          </mxGeometry>
        </mxCell>
        <mxCell id="1FdhS4_hSl1T9DwcQxYW-53" value="Yes" style="text;html=1;strokeColor=none;fillColor=none;align=center;verticalAlign=middle;whiteSpace=wrap;rounded=0;" vertex="1" parent="1FdhS4_hSl1T9DwcQxYW-106">
          <mxGeometry x="144.5" y="110" width="40" height="20" as="geometry" />
        </mxCell>
        <mxCell id="1FdhS4_hSl1T9DwcQxYW-65" value="从队列中移除游戏" style="rounded=0;whiteSpace=wrap;html=1;" vertex="1" parent="1FdhS4_hSl1T9DwcQxYW-106">
          <mxGeometry x="301" y="240" width="120" height="30" as="geometry" />
        </mxCell>
        <mxCell id="1FdhS4_hSl1T9DwcQxYW-66" value="" style="edgeStyle=orthogonalEdgeStyle;rounded=0;orthogonalLoop=1;jettySize=auto;html=1;" edge="1" parent="1FdhS4_hSl1T9DwcQxYW-106" source="1FdhS4_hSl1T9DwcQxYW-50" target="1FdhS4_hSl1T9DwcQxYW-65">
          <mxGeometry x="22" y="10" as="geometry" />
        </mxCell>
        <mxCell id="1FdhS4_hSl1T9DwcQxYW-75" value="" style="edgeStyle=orthogonalEdgeStyle;rounded=0;orthogonalLoop=1;jettySize=auto;html=1;" edge="1" parent="1FdhS4_hSl1T9DwcQxYW-106" source="1FdhS4_hSl1T9DwcQxYW-74" target="1FdhS4_hSl1T9DwcQxYW-50">
          <mxGeometry relative="1" as="geometry" />
        </mxCell>
        <mxCell id="1FdhS4_hSl1T9DwcQxYW-74" value="接口请求成功" style="rhombus;whiteSpace=wrap;html=1;" vertex="1" parent="1FdhS4_hSl1T9DwcQxYW-106">
          <mxGeometry x="124" y="100" width="80" height="40" as="geometry" />
        </mxCell>
        <mxCell id="1FdhS4_hSl1T9DwcQxYW-76" value="Yes" style="text;html=1;strokeColor=none;fillColor=none;align=center;verticalAlign=middle;whiteSpace=wrap;rounded=0;" vertex="1" parent="1FdhS4_hSl1T9DwcQxYW-106">
          <mxGeometry x="164" y="140" width="40" height="20" as="geometry" />
        </mxCell>
        <mxCell id="1FdhS4_hSl1T9DwcQxYW-77" value="Yes" style="text;html=1;strokeColor=none;fillColor=none;align=center;verticalAlign=middle;whiteSpace=wrap;rounded=0;" vertex="1" parent="1FdhS4_hSl1T9DwcQxYW-106">
          <mxGeometry x="164" y="210" width="40" height="20" as="geometry" />
        </mxCell>
        <mxCell id="1FdhS4_hSl1T9DwcQxYW-78" value="No" style="text;html=1;strokeColor=none;fillColor=none;align=center;verticalAlign=middle;whiteSpace=wrap;rounded=0;" vertex="1" parent="1FdhS4_hSl1T9DwcQxYW-106">
          <mxGeometry x="254" y="170" width="40" height="20" as="geometry" />
        </mxCell>
        <mxCell id="1FdhS4_hSl1T9DwcQxYW-79" value="接口请求成功" style="rhombus;whiteSpace=wrap;html=1;" vertex="1" parent="1FdhS4_hSl1T9DwcQxYW-106">
          <mxGeometry x="124" y="300" width="80" height="40" as="geometry" />
        </mxCell>
        <mxCell id="1FdhS4_hSl1T9DwcQxYW-80" value="" style="edgeStyle=orthogonalEdgeStyle;rounded=0;orthogonalLoop=1;jettySize=auto;html=1;" edge="1" parent="1FdhS4_hSl1T9DwcQxYW-106" source="1FdhS4_hSl1T9DwcQxYW-12" target="1FdhS4_hSl1T9DwcQxYW-79">
          <mxGeometry relative="1" as="geometry" />
        </mxCell>
        <mxCell id="1FdhS4_hSl1T9DwcQxYW-82" value="Yes" style="text;html=1;strokeColor=none;fillColor=none;align=center;verticalAlign=middle;whiteSpace=wrap;rounded=0;" vertex="1" parent="1FdhS4_hSl1T9DwcQxYW-106">
          <mxGeometry x="164" y="340" width="40" height="20" as="geometry" />
        </mxCell>
        <mxCell id="1FdhS4_hSl1T9DwcQxYW-69" value="Yes" style="text;html=1;strokeColor=none;fillColor=none;align=center;verticalAlign=middle;whiteSpace=wrap;rounded=0;" vertex="1" parent="1FdhS4_hSl1T9DwcQxYW-106">
          <mxGeometry x="156.5" y="490" width="40" height="20" as="geometry" />
        </mxCell>
        <mxCell id="1FdhS4_hSl1T9DwcQxYW-54" value="用户未下载" style="rhombus;whiteSpace=wrap;html=1;" vertex="1" parent="1FdhS4_hSl1T9DwcQxYW-106">
          <mxGeometry x="124" y="430" width="80" height="40" as="geometry" />
        </mxCell>
        <mxCell id="1FdhS4_hSl1T9DwcQxYW-67" value="" style="edgeStyle=orthogonalEdgeStyle;rounded=0;orthogonalLoop=1;jettySize=auto;html=1;" edge="1" parent="1FdhS4_hSl1T9DwcQxYW-106" source="1FdhS4_hSl1T9DwcQxYW-54" target="1FdhS4_hSl1T9DwcQxYW-27">
          <mxGeometry x="14" y="390" as="geometry" />
        </mxCell>
        <mxCell id="1FdhS4_hSl1T9DwcQxYW-64" value="" style="edgeStyle=orthogonalEdgeStyle;rounded=0;orthogonalLoop=1;jettySize=auto;html=1;" edge="1" parent="1FdhS4_hSl1T9DwcQxYW-106" source="1FdhS4_hSl1T9DwcQxYW-57" target="1FdhS4_hSl1T9DwcQxYW-54">
          <mxGeometry x="42" y="200" as="geometry" />
        </mxCell>
        <mxCell id="1FdhS4_hSl1T9DwcQxYW-57" value="从队列中移除游戏" style="rounded=0;whiteSpace=wrap;html=1;" vertex="1" parent="1FdhS4_hSl1T9DwcQxYW-106">
          <mxGeometry x="104.5" y="370" width="120" height="30" as="geometry" />
        </mxCell>
        <mxCell id="1FdhS4_hSl1T9DwcQxYW-81" value="" style="edgeStyle=orthogonalEdgeStyle;rounded=0;orthogonalLoop=1;jettySize=auto;html=1;" edge="1" parent="1FdhS4_hSl1T9DwcQxYW-106" source="1FdhS4_hSl1T9DwcQxYW-79" target="1FdhS4_hSl1T9DwcQxYW-57">
          <mxGeometry relative="1" as="geometry" />
        </mxCell>
        <mxCell id="1FdhS4_hSl1T9DwcQxYW-27" value="创建下载任务" style="rounded=0;whiteSpace=wrap;html=1;" vertex="1" parent="1FdhS4_hSl1T9DwcQxYW-106">
          <mxGeometry x="104" y="539" width="120" height="30" as="geometry" />
        </mxCell>
        <mxCell id="1FdhS4_hSl1T9DwcQxYW-83" value="end" style="ellipse;whiteSpace=wrap;html=1;" vertex="1" parent="1FdhS4_hSl1T9DwcQxYW-106">
          <mxGeometry y="470" width="70" height="40" as="geometry" />
        </mxCell>
        <mxCell id="1FdhS4_hSl1T9DwcQxYW-84" value="" style="endArrow=classic;html=1;exitX=0;exitY=0.5;exitDx=0;exitDy=0;entryX=0.5;entryY=0;entryDx=0;entryDy=0;" edge="1" parent="1FdhS4_hSl1T9DwcQxYW-106" source="1FdhS4_hSl1T9DwcQxYW-74" target="1FdhS4_hSl1T9DwcQxYW-83">
          <mxGeometry width="50" height="50" relative="1" as="geometry">
            <mxPoint x="194" y="290" as="sourcePoint" />
            <mxPoint x="244" y="240" as="targetPoint" />
            <Array as="points">
              <mxPoint x="34" y="120" />
            </Array>
          </mxGeometry>
        </mxCell>
        <mxCell id="1FdhS4_hSl1T9DwcQxYW-86" value="" style="endArrow=classic;html=1;exitX=0;exitY=0.5;exitDx=0;exitDy=0;" edge="1" parent="1FdhS4_hSl1T9DwcQxYW-106" source="1FdhS4_hSl1T9DwcQxYW-79">
          <mxGeometry width="50" height="50" relative="1" as="geometry">
            <mxPoint x="194" y="290" as="sourcePoint" />
            <mxPoint x="34" y="320" as="targetPoint" />
          </mxGeometry>
        </mxCell>
        <mxCell id="1FdhS4_hSl1T9DwcQxYW-87" value="No" style="text;html=1;strokeColor=none;fillColor=none;align=center;verticalAlign=middle;whiteSpace=wrap;rounded=0;" vertex="1" parent="1FdhS4_hSl1T9DwcQxYW-106">
          <mxGeometry x="64" y="100" width="40" height="20" as="geometry" />
        </mxCell>
        <mxCell id="1FdhS4_hSl1T9DwcQxYW-88" value="No" style="text;html=1;strokeColor=none;fillColor=none;align=center;verticalAlign=middle;whiteSpace=wrap;rounded=0;" vertex="1" parent="1FdhS4_hSl1T9DwcQxYW-106">
          <mxGeometry x="54" y="300" width="40" height="20" as="geometry" />
        </mxCell>
        <mxCell id="1FdhS4_hSl1T9DwcQxYW-96" value="No" style="text;html=1;strokeColor=none;fillColor=none;align=center;verticalAlign=middle;whiteSpace=wrap;rounded=0;" vertex="1" parent="1FdhS4_hSl1T9DwcQxYW-106">
          <mxGeometry x="234" y="430" width="40" height="20" as="geometry" />
        </mxCell>
        <mxCell id="1FdhS4_hSl1T9DwcQxYW-107" value="No" style="text;html=1;strokeColor=none;fillColor=none;align=center;verticalAlign=middle;whiteSpace=wrap;rounded=0;" vertex="1" parent="WIyWlLk6GJQsqaUBKTNV-1">
          <mxGeometry x="460" y="900" width="40" height="20" as="geometry" />
        </mxCell>
        <mxCell id="1FdhS4_hSl1T9DwcQxYW-109" value="" style="endArrow=classic;html=1;exitX=0;exitY=0.5;exitDx=0;exitDy=0;entryX=0.5;entryY=0;entryDx=0;entryDy=0;" edge="1" parent="WIyWlLk6GJQsqaUBKTNV-1" source="ebCV4vV2BCAYUUxFwjKP-40" target="1FdhS4_hSl1T9DwcQxYW-83">
          <mxGeometry width="50" height="50" relative="1" as="geometry">
            <mxPoint x="480" y="1010" as="sourcePoint" />
            <mxPoint x="530" y="960" as="targetPoint" />
            <Array as="points">
              <mxPoint x="324" y="860" />
            </Array>
          </mxGeometry>
        </mxCell>
        <mxCell id="1FdhS4_hSl1T9DwcQxYW-110" value="" style="edgeStyle=orthogonalEdgeStyle;rounded=0;orthogonalLoop=1;jettySize=auto;html=1;" edge="1" parent="WIyWlLk6GJQsqaUBKTNV-1" source="1FdhS4_hSl1T9DwcQxYW-27" target="ebCV4vV2BCAYUUxFwjKP-42">
          <mxGeometry relative="1" as="geometry">
            <Array as="points">
              <mxPoint x="453" y="1500" />
              <mxPoint x="453" y="1500" />
            </Array>
          </mxGeometry>
        </mxCell>
        <mxCell id="1FdhS4_hSl1T9DwcQxYW-36" value="" style="endArrow=classic;html=1;exitX=1;exitY=0.5;exitDx=0;exitDy=0;entryX=0.5;entryY=0;entryDx=0;entryDy=0;" edge="1" parent="WIyWlLk6GJQsqaUBKTNV-1" source="1FdhS4_hSl1T9DwcQxYW-34" target="1FdhS4_hSl1T9DwcQxYW-16">
          <mxGeometry width="50" height="50" relative="1" as="geometry">
            <mxPoint x="605" y="1734" as="sourcePoint" />
            <mxPoint x="610" y="1734" as="targetPoint" />
            <Array as="points">
              <mxPoint x="645" y="1630" />
            </Array>
          </mxGeometry>
        </mxCell>
        <mxCell id="1FdhS4_hSl1T9DwcQxYW-111" value="" style="endArrow=classic;html=1;exitX=0.5;exitY=1;exitDx=0;exitDy=0;" edge="1" parent="WIyWlLk6GJQsqaUBKTNV-1" source="1FdhS4_hSl1T9DwcQxYW-16">
          <mxGeometry width="50" height="50" relative="1" as="geometry">
            <mxPoint x="480" y="1610" as="sourcePoint" />
            <mxPoint x="645" y="1810" as="targetPoint" />
          </mxGeometry>
        </mxCell>
        <mxCell id="1FdhS4_hSl1T9DwcQxYW-113" value="1770018&lt;br&gt;online_msg_but_not_login" style="shape=callout;whiteSpace=wrap;html=1;perimeter=calloutPerimeter;strokeColor=#d6b656;strokeWidth=1;fillColor=#fff2cc;" vertex="1" parent="WIyWlLk6GJQsqaUBKTNV-1">
          <mxGeometry x="600" y="160" width="190" height="60" as="geometry" />
        </mxCell>
        <mxCell id="1FdhS4_hSl1T9DwcQxYW-114" value="1770018&lt;br&gt;online_msg_auto_install_switch_off" style="shape=callout;whiteSpace=wrap;html=1;perimeter=calloutPerimeter;strokeColor=#d6b656;strokeWidth=1;position2=0.74;fillColor=#fff2cc;" vertex="1" parent="WIyWlLk6GJQsqaUBKTNV-1">
          <mxGeometry x="207.5" y="260" width="190" height="60" as="geometry" />
        </mxCell>
        <mxCell id="1FdhS4_hSl1T9DwcQxYW-115" value="1770018&lt;br&gt;not_have_notify_permission" style="shape=callout;whiteSpace=wrap;html=1;perimeter=calloutPerimeter;strokeColor=#d6b656;strokeWidth=1;fillColor=#fff2cc;position2=0.86;" vertex="1" parent="WIyWlLk6GJQsqaUBKTNV-1">
          <mxGeometry x="-24" y="270" width="190" height="60" as="geometry" />
        </mxCell>
        <mxCell id="1FdhS4_hSl1T9DwcQxYW-116" value="1770018&lt;br&gt;invalid_data_$msg.layoutType" style="shape=callout;whiteSpace=wrap;html=1;perimeter=calloutPerimeter;strokeColor=#d6b656;strokeWidth=1;fillColor=#fff2cc;position2=0.86;" vertex="1" parent="WIyWlLk6GJQsqaUBKTNV-1">
          <mxGeometry x="-24" y="410" width="190" height="60" as="geometry" />
        </mxCell>
        <mxCell id="1FdhS4_hSl1T9DwcQxYW-117" value="1770014&lt;br&gt;subFrom = push&amp;nbsp; valuePage = /game_detail" style="shape=callout;whiteSpace=wrap;html=1;perimeter=calloutPerimeter;strokeColor=#d6b656;strokeWidth=1;fillColor=#fff2cc;position2=0.89;" vertex="1" parent="WIyWlLk6GJQsqaUBKTNV-1">
          <mxGeometry x="70" y="1650" width="190" height="80" as="geometry" />
        </mxCell>
        <mxCell id="1FdhS4_hSl1T9DwcQxYW-118" value="1770018&lt;br&gt;1.&amp;nbsp;receive_invalid_online_msg&lt;br&gt;2.task_already_in_download_list&lt;br&gt;3.online_msg_but_null_url&lt;br&gt;4.game is downloading by others" style="shape=callout;whiteSpace=wrap;html=1;perimeter=calloutPerimeter;strokeColor=#d6b656;strokeWidth=1;fillColor=#fff2cc;" vertex="1" parent="WIyWlLk6GJQsqaUBKTNV-1">
          <mxGeometry x="580" y="380" width="190" height="130" as="geometry" />
        </mxCell>
        <mxCell id="1FdhS4_hSl1T9DwcQxYW-121" value="1770024&lt;br&gt;device in gaming state" style="shape=callout;whiteSpace=wrap;html=1;perimeter=calloutPerimeter;strokeColor=#d6b656;strokeWidth=1;fillColor=#fff2cc;position2=0.86;" vertex="1" parent="WIyWlLk6GJQsqaUBKTNV-1">
          <mxGeometry x="160" y="810" width="190" height="60" as="geometry" />
        </mxCell>
        <mxCell id="1FdhS4_hSl1T9DwcQxYW-122" value="Yes" style="text;html=1;strokeColor=none;fillColor=none;align=center;verticalAlign=middle;whiteSpace=wrap;rounded=0;" vertex="1" parent="WIyWlLk6GJQsqaUBKTNV-1">
          <mxGeometry x="357.5" y="840" width="40" height="20" as="geometry" />
        </mxCell>
        <mxCell id="1FdhS4_hSl1T9DwcQxYW-123" value="1770024&lt;br&gt;online_msg_get_subscribe_status_error&lt;br&gt;-${subscribeState.exception.message}&lt;br&gt;字段增加：包名信息" style="shape=callout;whiteSpace=wrap;html=1;perimeter=calloutPerimeter;strokeColor=#d6b656;strokeWidth=1;fillColor=#fff2cc;position2=0.86;" vertex="1" parent="WIyWlLk6GJQsqaUBKTNV-1">
          <mxGeometry x="160" y="930" width="230" height="90" as="geometry" />
        </mxCell>
        <mxCell id="1FdhS4_hSl1T9DwcQxYW-124" value="1770024&lt;br&gt;online_msg_get_download_status_error&lt;br&gt;-${statusResult.exception.message}&lt;br&gt;字段增加：包名信息" style="shape=callout;whiteSpace=wrap;html=1;perimeter=calloutPerimeter;strokeColor=#d6b656;strokeWidth=1;fillColor=#fff2cc;position2=0.86;" vertex="1" parent="WIyWlLk6GJQsqaUBKTNV-1">
          <mxGeometry x="150" y="1120" width="230" height="90" as="geometry" />
        </mxCell>
        <mxCell id="1FdhS4_hSl1T9DwcQxYW-125" value="1770024&lt;br&gt;电量或者存储导致自动任务未开始&lt;br&gt;battery or storage is low" style="shape=callout;whiteSpace=wrap;html=1;perimeter=calloutPerimeter;strokeColor=#d6b656;strokeWidth=1;fillColor=#fff2cc;position2=0;" vertex="1" parent="WIyWlLk6GJQsqaUBKTNV-1">
          <mxGeometry x="540" y="1440" width="230" height="80" as="geometry" />
        </mxCell>
        <mxCell id="1FdhS4_hSl1T9DwcQxYW-126" value="1770014&lt;br&gt;开始下载" style="shape=callout;whiteSpace=wrap;html=1;perimeter=calloutPerimeter;strokeColor=#d6b656;strokeWidth=1;fillColor=#fff2cc;position2=0;" vertex="1" parent="WIyWlLk6GJQsqaUBKTNV-1">
          <mxGeometry x="480" y="1360" width="230" height="80" as="geometry" />
        </mxCell>
        <mxCell id="1FdhS4_hSl1T9DwcQxYW-129" value="" style="edgeStyle=orthogonalEdgeStyle;rounded=0;orthogonalLoop=1;jettySize=auto;html=1;" edge="1" parent="WIyWlLk6GJQsqaUBKTNV-1" source="1FdhS4_hSl1T9DwcQxYW-127" target="1FdhS4_hSl1T9DwcQxYW-128">
          <mxGeometry relative="1" as="geometry" />
        </mxCell>
        <mxCell id="1FdhS4_hSl1T9DwcQxYW-127" value="App 冷启动" style="ellipse;whiteSpace=wrap;html=1;strokeColor=#000000;strokeWidth=1;" vertex="1" parent="WIyWlLk6GJQsqaUBKTNV-1">
          <mxGeometry x="1140" y="90" width="100" height="60" as="geometry" />
        </mxCell>
        <mxCell id="1FdhS4_hSl1T9DwcQxYW-132" value="" style="edgeStyle=orthogonalEdgeStyle;rounded=0;orthogonalLoop=1;jettySize=auto;html=1;" edge="1" parent="WIyWlLk6GJQsqaUBKTNV-1" source="1FdhS4_hSl1T9DwcQxYW-128" target="1FdhS4_hSl1T9DwcQxYW-131">
          <mxGeometry relative="1" as="geometry" />
        </mxCell>
        <mxCell id="1FdhS4_hSl1T9DwcQxYW-128" value="设置3H周期任务" style="rounded=0;whiteSpace=wrap;html=1;strokeColor=#000000;strokeWidth=1;" vertex="1" parent="WIyWlLk6GJQsqaUBKTNV-1">
          <mxGeometry x="1115" y="200" width="150" height="40" as="geometry" />
        </mxCell>
        <mxCell id="1FdhS4_hSl1T9DwcQxYW-130" value="" style="shape=flexArrow;endArrow=classic;html=1;" edge="1" parent="WIyWlLk6GJQsqaUBKTNV-1">
          <mxGeometry width="50" height="50" relative="1" as="geometry">
            <mxPoint x="1189.5" y="290" as="sourcePoint" />
            <mxPoint x="1189.5" y="410" as="targetPoint" />
          </mxGeometry>
        </mxCell>
        <mxCell id="1FdhS4_hSl1T9DwcQxYW-131" value="执行" style="text;html=1;strokeColor=none;fillColor=none;align=center;verticalAlign=middle;whiteSpace=wrap;rounded=0;" vertex="1" parent="WIyWlLk6GJQsqaUBKTNV-1">
          <mxGeometry x="1170" y="290" width="40" height="60" as="geometry" />
        </mxCell>
        <mxCell id="1FdhS4_hSl1T9DwcQxYW-133" value="" style="shape=flexArrow;endArrow=classic;html=1;" edge="1" parent="WIyWlLk6GJQsqaUBKTNV-1">
          <mxGeometry width="50" height="50" relative="1" as="geometry">
            <mxPoint x="990" y="499.5" as="sourcePoint" />
            <mxPoint x="1070" y="499.5" as="targetPoint" />
          </mxGeometry>
        </mxCell>
        <mxCell id="1FdhS4_hSl1T9DwcQxYW-137" value="" style="edgeStyle=orthogonalEdgeStyle;rounded=0;orthogonalLoop=1;jettySize=auto;html=1;" edge="1" parent="WIyWlLk6GJQsqaUBKTNV-1" source="1FdhS4_hSl1T9DwcQxYW-135" target="1FdhS4_hSl1T9DwcQxYW-136">
          <mxGeometry relative="1" as="geometry" />
        </mxCell>
        <mxCell id="1FdhS4_hSl1T9DwcQxYW-140" value="" style="edgeStyle=orthogonalEdgeStyle;rounded=0;orthogonalLoop=1;jettySize=auto;html=1;" edge="1" parent="WIyWlLk6GJQsqaUBKTNV-1" source="1FdhS4_hSl1T9DwcQxYW-135" target="1FdhS4_hSl1T9DwcQxYW-139">
          <mxGeometry relative="1" as="geometry" />
        </mxCell>
        <mxCell id="1FdhS4_hSl1T9DwcQxYW-135" value="1.未登录&lt;br&gt;2.预约上线自动安装关闭&lt;br&gt;3.在游戏中&lt;br&gt;4.电量低&lt;br&gt;5.存储低&lt;br&gt;6.温度过高" style="rhombus;whiteSpace=wrap;html=1;strokeColor=#000000;strokeWidth=1;" vertex="1" parent="WIyWlLk6GJQsqaUBKTNV-1">
          <mxGeometry x="1080.25" y="440" width="219.5" height="120" as="geometry" />
        </mxCell>
        <mxCell id="1FdhS4_hSl1T9DwcQxYW-136" value="End" style="ellipse;whiteSpace=wrap;html=1;strokeColor=#000000;strokeWidth=1;" vertex="1" parent="WIyWlLk6GJQsqaUBKTNV-1">
          <mxGeometry x="1380" y="470" width="90" height="60" as="geometry" />
        </mxCell>
        <mxCell id="1FdhS4_hSl1T9DwcQxYW-138" value="Yes" style="text;html=1;strokeColor=none;fillColor=none;align=center;verticalAlign=middle;whiteSpace=wrap;rounded=0;" vertex="1" parent="WIyWlLk6GJQsqaUBKTNV-1">
          <mxGeometry x="1310" y="480" width="40" height="20" as="geometry" />
        </mxCell>
        <mxCell id="1FdhS4_hSl1T9DwcQxYW-155" value="" style="edgeStyle=orthogonalEdgeStyle;rounded=0;orthogonalLoop=1;jettySize=auto;html=1;entryX=0.5;entryY=0;entryDx=0;entryDy=0;" edge="1" parent="WIyWlLk6GJQsqaUBKTNV-1" source="1FdhS4_hSl1T9DwcQxYW-139" target="1FdhS4_hSl1T9DwcQxYW-167">
          <mxGeometry relative="1" as="geometry" />
        </mxCell>
        <mxCell id="1FdhS4_hSl1T9DwcQxYW-139" value="获取已预约未下载7日内上线游戏" style="rounded=0;whiteSpace=wrap;html=1;strokeColor=#000000;strokeWidth=1;" vertex="1" parent="WIyWlLk6GJQsqaUBKTNV-1">
          <mxGeometry x="1130" y="640" width="120" height="60" as="geometry" />
        </mxCell>
        <mxCell id="1FdhS4_hSl1T9DwcQxYW-141" value="No" style="text;html=1;strokeColor=none;fillColor=none;align=center;verticalAlign=middle;whiteSpace=wrap;rounded=0;" vertex="1" parent="WIyWlLk6GJQsqaUBKTNV-1">
          <mxGeometry x="1150" y="590" width="40" height="20" as="geometry" />
        </mxCell>
        <mxCell id="1FdhS4_hSl1T9DwcQxYW-151" value="" style="endArrow=classic;html=1;exitX=1;exitY=0.5;exitDx=0;exitDy=0;entryX=0.5;entryY=1;entryDx=0;entryDy=0;" edge="1" parent="WIyWlLk6GJQsqaUBKTNV-1" source="1FdhS4_hSl1T9DwcQxYW-149" target="1FdhS4_hSl1T9DwcQxYW-136">
          <mxGeometry width="50" height="50" relative="1" as="geometry">
            <mxPoint x="860" y="960" as="sourcePoint" />
            <mxPoint x="1430" y="530" as="targetPoint" />
            <Array as="points">
              <mxPoint x="1430" y="1309" />
            </Array>
          </mxGeometry>
        </mxCell>
        <mxCell id="1FdhS4_hSl1T9DwcQxYW-159" value="" style="shape=flexArrow;endArrow=classic;html=1;" edge="1" parent="WIyWlLk6GJQsqaUBKTNV-1">
          <mxGeometry width="50" height="50" relative="1" as="geometry">
            <mxPoint x="1060" y="420" as="sourcePoint" />
            <mxPoint x="1180" y="260" as="targetPoint" />
            <Array as="points">
              <mxPoint x="1060" y="260" />
            </Array>
          </mxGeometry>
        </mxCell>
        <mxCell id="1FdhS4_hSl1T9DwcQxYW-160" value="3Hours later" style="text;html=1;strokeColor=none;fillColor=none;align=center;verticalAlign=middle;whiteSpace=wrap;rounded=0;" vertex="1" parent="WIyWlLk6GJQsqaUBKTNV-1">
          <mxGeometry x="1070" y="300" width="40" height="20" as="geometry" />
        </mxCell>
        <mxCell id="1FdhS4_hSl1T9DwcQxYW-163" value="1770024&lt;br&gt;1.omission_subscribe_task_not_login&lt;br&gt;2. omission_subscribe_task_online_install_switch_off&lt;br&gt;3. omission_subscribe_task_in_gaming&lt;br&gt;4. omission_subscribe_task_battery_low&lt;br&gt;5. omission_subscribe_task_storage_low&lt;br&gt;6. omission_subscribe_task_temperature_high" style="shape=callout;whiteSpace=wrap;html=1;perimeter=calloutPerimeter;strokeColor=#d6b656;strokeWidth=1;fillColor=#fff2cc;position2=0.41;" vertex="1" parent="WIyWlLk6GJQsqaUBKTNV-1">
          <mxGeometry x="1220" y="360" width="305" height="130" as="geometry" />
        </mxCell>
        <mxCell id="1FdhS4_hSl1T9DwcQxYW-165" value="1770024&lt;br&gt;1.omission_subscribe_task_already_in_download_list&lt;br&gt;2.omission_subscribe_task_downloading_by_others" style="shape=callout;whiteSpace=wrap;html=1;perimeter=calloutPerimeter;strokeColor=#d6b656;strokeWidth=1;fillColor=#fff2cc;" vertex="1" parent="WIyWlLk6GJQsqaUBKTNV-1">
          <mxGeometry x="1230" y="1010" width="305" height="80" as="geometry" />
        </mxCell>
        <mxCell id="1FdhS4_hSl1T9DwcQxYW-168" value="" style="edgeStyle=orthogonalEdgeStyle;rounded=0;orthogonalLoop=1;jettySize=auto;html=1;" edge="1" parent="WIyWlLk6GJQsqaUBKTNV-1" source="1FdhS4_hSl1T9DwcQxYW-167" target="1FdhS4_hSl1T9DwcQxYW-143">
          <mxGeometry relative="1" as="geometry" />
        </mxCell>
        <mxCell id="1FdhS4_hSl1T9DwcQxYW-167" value="接口请求成功" style="rhombus;whiteSpace=wrap;html=1;strokeColor=#000000;strokeWidth=1;" vertex="1" parent="WIyWlLk6GJQsqaUBKTNV-1">
          <mxGeometry x="1097.5" y="740" width="185" height="80" as="geometry" />
        </mxCell>
        <mxCell id="1FdhS4_hSl1T9DwcQxYW-169" value="" style="endArrow=classic;html=1;exitX=1;exitY=0.5;exitDx=0;exitDy=0;" edge="1" parent="WIyWlLk6GJQsqaUBKTNV-1" source="1FdhS4_hSl1T9DwcQxYW-167">
          <mxGeometry width="50" height="50" relative="1" as="geometry">
            <mxPoint x="1320" y="780" as="sourcePoint" />
            <mxPoint x="1430" y="780" as="targetPoint" />
          </mxGeometry>
        </mxCell>
        <mxCell id="1FdhS4_hSl1T9DwcQxYW-142" value="过滤本地已安装" style="rounded=0;whiteSpace=wrap;html=1;strokeColor=#000000;strokeWidth=1;" vertex="1" parent="WIyWlLk6GJQsqaUBKTNV-1">
          <mxGeometry x="1130" y="1030" width="120" height="60" as="geometry" />
        </mxCell>
        <mxCell id="1FdhS4_hSl1T9DwcQxYW-147" value="" style="edgeStyle=orthogonalEdgeStyle;rounded=0;orthogonalLoop=1;jettySize=auto;html=1;" edge="1" parent="WIyWlLk6GJQsqaUBKTNV-1" source="1FdhS4_hSl1T9DwcQxYW-143" target="1FdhS4_hSl1T9DwcQxYW-142">
          <mxGeometry x="975" y="830" as="geometry" />
        </mxCell>
        <mxCell id="1FdhS4_hSl1T9DwcQxYW-143" value="&lt;span&gt;1.包名为空，&lt;br&gt;2.应用名为空&lt;br&gt;3.icon 为空&lt;br&gt;4.下载地址为空&lt;/span&gt;" style="rhombus;whiteSpace=wrap;html=1;strokeColor=#000000;strokeWidth=1;" vertex="1" parent="WIyWlLk6GJQsqaUBKTNV-1">
          <mxGeometry x="1080" y="870" width="220" height="80" as="geometry" />
        </mxCell>
        <mxCell id="1FdhS4_hSl1T9DwcQxYW-145" value="Yes" style="text;html=1;strokeColor=none;fillColor=none;align=center;verticalAlign=middle;whiteSpace=wrap;rounded=0;" vertex="1" parent="WIyWlLk6GJQsqaUBKTNV-1">
          <mxGeometry x="1320" y="890" width="40" height="20" as="geometry" />
        </mxCell>
        <mxCell id="1FdhS4_hSl1T9DwcQxYW-146" value="1.正在当前下载队列中&lt;br&gt;2.正在被下载" style="rhombus;whiteSpace=wrap;html=1;strokeColor=#000000;strokeWidth=1;" vertex="1" parent="WIyWlLk6GJQsqaUBKTNV-1">
          <mxGeometry x="1110" y="1160" width="160" height="80" as="geometry" />
        </mxCell>
        <mxCell id="1FdhS4_hSl1T9DwcQxYW-148" value="" style="edgeStyle=orthogonalEdgeStyle;rounded=0;orthogonalLoop=1;jettySize=auto;html=1;" edge="1" parent="WIyWlLk6GJQsqaUBKTNV-1" source="1FdhS4_hSl1T9DwcQxYW-142" target="1FdhS4_hSl1T9DwcQxYW-146">
          <mxGeometry x="975" y="830" as="geometry" />
        </mxCell>
        <mxCell id="1FdhS4_hSl1T9DwcQxYW-149" value="创建提交下载任务" style="rounded=0;whiteSpace=wrap;html=1;strokeColor=#000000;strokeWidth=1;" vertex="1" parent="WIyWlLk6GJQsqaUBKTNV-1">
          <mxGeometry x="1130" y="1279" width="120" height="60" as="geometry" />
        </mxCell>
        <mxCell id="1FdhS4_hSl1T9DwcQxYW-150" value="" style="edgeStyle=orthogonalEdgeStyle;rounded=0;orthogonalLoop=1;jettySize=auto;html=1;" edge="1" parent="WIyWlLk6GJQsqaUBKTNV-1" source="1FdhS4_hSl1T9DwcQxYW-146" target="1FdhS4_hSl1T9DwcQxYW-149">
          <mxGeometry x="975" y="830" as="geometry" />
        </mxCell>
        <mxCell id="1FdhS4_hSl1T9DwcQxYW-152" value="" style="endArrow=classic;html=1;exitX=1;exitY=0.5;exitDx=0;exitDy=0;" edge="1" parent="WIyWlLk6GJQsqaUBKTNV-1" source="1FdhS4_hSl1T9DwcQxYW-143">
          <mxGeometry x="975" y="830" width="50" height="50" as="geometry">
            <mxPoint x="860" y="970" as="sourcePoint" />
            <mxPoint x="1430" y="910" as="targetPoint" />
          </mxGeometry>
        </mxCell>
        <mxCell id="1FdhS4_hSl1T9DwcQxYW-153" value="Yes" style="text;html=1;strokeColor=none;fillColor=none;align=center;verticalAlign=middle;whiteSpace=wrap;rounded=0;" vertex="1" parent="WIyWlLk6GJQsqaUBKTNV-1">
          <mxGeometry x="1330" y="1180" width="40" height="20" as="geometry" />
        </mxCell>
        <mxCell id="1FdhS4_hSl1T9DwcQxYW-154" value="" style="endArrow=classic;html=1;exitX=1;exitY=0.5;exitDx=0;exitDy=0;" edge="1" parent="WIyWlLk6GJQsqaUBKTNV-1" source="1FdhS4_hSl1T9DwcQxYW-146">
          <mxGeometry x="975" y="830" width="50" height="50" as="geometry">
            <mxPoint x="860" y="1170" as="sourcePoint" />
            <mxPoint x="1430" y="1200" as="targetPoint" />
          </mxGeometry>
        </mxCell>
        <mxCell id="1FdhS4_hSl1T9DwcQxYW-156" value="No" style="text;html=1;strokeColor=none;fillColor=none;align=center;verticalAlign=middle;whiteSpace=wrap;rounded=0;" vertex="1" parent="WIyWlLk6GJQsqaUBKTNV-1">
          <mxGeometry x="1190" y="970" width="40" height="20" as="geometry" />
        </mxCell>
        <mxCell id="1FdhS4_hSl1T9DwcQxYW-157" value="No" style="text;html=1;strokeColor=none;fillColor=none;align=center;verticalAlign=middle;whiteSpace=wrap;rounded=0;" vertex="1" parent="WIyWlLk6GJQsqaUBKTNV-1">
          <mxGeometry x="1190" y="1250" width="40" height="20" as="geometry" />
        </mxCell>
        <mxCell id="1FdhS4_hSl1T9DwcQxYW-161" value="" style="shape=callout;whiteSpace=wrap;html=1;perimeter=calloutPerimeter;strokeColor=#d6b656;strokeWidth=1;fillColor=#fff2cc;position2=0;rotation=-180;" vertex="1" parent="WIyWlLk6GJQsqaUBKTNV-1">
          <mxGeometry x="975" y="1340" width="230" height="80" as="geometry" />
        </mxCell>
        <mxCell id="1FdhS4_hSl1T9DwcQxYW-162" value="&lt;span style=&quot;background-color: rgb(255 , 242 , 204)&quot;&gt;1770014&lt;/span&gt;&lt;br&gt;&lt;span style=&quot;background-color: rgb(255 , 242 , 204)&quot;&gt;开始下载&lt;/span&gt;" style="text;html=1;strokeColor=none;fillColor=none;align=center;verticalAlign=middle;whiteSpace=wrap;rounded=0;" vertex="1" parent="WIyWlLk6GJQsqaUBKTNV-1">
          <mxGeometry x="1040" y="1390" width="90" height="20" as="geometry" />
        </mxCell>
        <mxCell id="1FdhS4_hSl1T9DwcQxYW-164" value="1770024&lt;br&gt;omission_subscribe_task_info_invalid" style="shape=callout;whiteSpace=wrap;html=1;perimeter=calloutPerimeter;strokeColor=#d6b656;strokeWidth=1;fillColor=#fff2cc;" vertex="1" parent="WIyWlLk6GJQsqaUBKTNV-1">
          <mxGeometry x="1255" y="830" width="205" height="80" as="geometry" />
        </mxCell>
        <mxCell id="1FdhS4_hSl1T9DwcQxYW-188" value="1770024&lt;br&gt;omission_subscribe_task_get_list_failed" style="shape=callout;whiteSpace=wrap;html=1;perimeter=calloutPerimeter;strokeColor=#d6b656;strokeWidth=1;fillColor=#fff2cc;" vertex="1" parent="WIyWlLk6GJQsqaUBKTNV-1">
          <mxGeometry x="1255" y="700" width="215" height="80" as="geometry" />
        </mxCell>
        <mxCell id="1FdhS4_hSl1T9DwcQxYW-189" value="Yes" style="text;html=1;strokeColor=none;fillColor=none;align=center;verticalAlign=middle;whiteSpace=wrap;rounded=0;" vertex="1" parent="WIyWlLk6GJQsqaUBKTNV-1">
          <mxGeometry x="1150" y="830" width="40" height="20" as="geometry" />
        </mxCell>
        <mxCell id="1FdhS4_hSl1T9DwcQxYW-190" value="No" style="text;html=1;strokeColor=none;fillColor=none;align=center;verticalAlign=middle;whiteSpace=wrap;rounded=0;" vertex="1" parent="WIyWlLk6GJQsqaUBKTNV-1">
          <mxGeometry x="1310" y="760" width="40" height="20" as="geometry" />
        </mxCell>
      </root>
    </mxGraphModel>
  </diagram>
</mxfile>
